<svg id="Layer_1" data-name="Layer 1" xmlns="http://www.w3.org/2000/svg" viewBox="0 0 250 64"><defs><style>.cls-1{fill:#43b3d7}</style></defs><path class="cls-1" d="M38.67 11.62l-7.28 3.26a.62.62 0 000 1.12l5.44 2.41 1.07.48a.62.62 0 00.5 0l2.91-1.31 1.23-.58a.62.62 0 00.36-.56v-5.8a.61.61 0 00-.86-.56l-1.48.66zm-.93 41.69v.2a.61.61 0 00.86.56l.42-.19 3.19-1.42 10-4.46a.62.62 0 00.36-.56V31.16a.62.62 0 00-.87-.56l-2.18 1-2 .92-.58.26-2 .92-2.6 1.16-2 .92-4.5 2-2.51 1.13L30.69 40a.61.61 0 000 1.12l1.23.55 2.51 1.11 2.94 1.31a.61.61 0 01.37.56v8.67zm2.92-33.2l-2.51 1.13-4.1 1.83-3.73 1.67-2.3 1a.61.61 0 000 1.12l8 3.55 2.52 1.11 2.76 1.23a.62.62 0 00.5 0l3-1.36 2-.91.21-.1a.61.61 0 00.37-.56V18a.62.62 0 00-.87-.56l-1.51.75-2.05.92z"/><path d="M34.83 62.82a.61.61 0 00.86-.56V46a.62.62 0 00-.36-.56l-3.41-1.54-2.51-1.12-1.47-.65-2.05-.91-3-1.36-1.45-.64-.64-.22-1.92-.86-.57-.25-2-.91-2.6-1.16-2.05-.9-1.56-.7a.62.62 0 00-.87.56V51a.62.62 0 00.37.56l16.33 7.26 3.54 1.57zM16.27 23.91l-1.74-.78a.61.61 0 00-.86.56v9.46a.62.62 0 00.36.56l2.24 1 2 .91 2.49 1.11.59.26 1.46.65 1 .47 2.77 1.22a.58.58 0 00.5 0l3.47-1.55 2.51-1.13 4.62-2.06a.61.61 0 000-1.12L36 32.68l-2.52-1.12-9.23-4.1-2.51-1.12-3.44-1.53zm4.48-10.41l-1.58-.69a.61.61 0 00-.86.56v8.81a.61.61 0 00.37.56L24 25.11a.62.62 0 00.5 0l4-1.82 2.09-.93L33 21.3l1.64-.74a.48.48 0 000-.88l-7-3.12-2.52-1.12-2.47-1.1zm3.64-.62l3 1.33a.62.62 0 00.5 0l9-4a.61.61 0 00.26-.9L31.84 1.4a.62.62 0 00-1 0L24.12 12a.61.61 0 00.27.88zM72.93 25.7a4.49 4.49 0 00-2.65.68 2.34 2.34 0 00-1 2 2.68 2.68 0 001.37 2.19 17.31 17.31 0 003.66 1.8A15.1 15.1 0 0177.53 34a7 7 0 012.2 2.41 7.8 7.8 0 01.87 3.89 7.11 7.11 0 01-1 3.76 7.28 7.28 0 01-3.09 2.74 10.68 10.68 0 01-4.85 1 16.3 16.3 0 01-4.67-.69A14.57 14.57 0 0162.63 45l2.28-4A12 12 0 0068 42.57a9.22 9.22 0 003.14.65 5.65 5.65 0 002.85-.7 2.41 2.41 0 001.22-2.26c0-1.36-1.28-2.54-3.82-3.53A33.46 33.46 0 0167.66 35a7.6 7.6 0 01-2.59-2.35A6.46 6.46 0 0164 28.81a7.09 7.09 0 012.23-5.46 9.08 9.08 0 015.94-2.25 15.54 15.54 0 014.89.66 16.85 16.85 0 013.81 1.88l-2 4a12.8 12.8 0 00-5.94-1.94zm36.92-5.52V47.5h-5.17V35l-8.56 12.14H96l-8.19-11.38V47.5h-5V20.18L96.15 39l13.63-18.86zm17.61 22.18h-8.7l-2.14 5.14h-5.1l11.84-27.29h.29l11.84 27.29h-6zM125.75 38l-2.53-6.38-2.64 6.38zm16.59-16.75V42.5h12.34v5h-17.51V21.25zm20 0V42.5h12.35v5h-17.52V21.25z" fill="#322f51"/><path class="cls-1" d="M191.34 47.5l-5.53-8.35h-3.46v8.35h-5.17V21.25h7.95q4.89 0 7.58 2.37a8.17 8.17 0 012.7 6.47 10.38 10.38 0 01-1 4.55 7.54 7.54 0 01-3.14 3.36l6.1 9.53zm-9-13.34H186a3.64 3.64 0 003.06-1.23 4.2 4.2 0 001-2.66 5.11 5.11 0 00-.82-2.73c-.55-.87-1.61-1.3-3.18-1.3h-3.71zm38.28-12.91l-9.84 18.08v8.17h-5.17v-8.17l-9.67-18.08h6.38l6 12.12 5.89-12.12zm19.69 0v5h-12.74v5.6h11.27v5h-11.27v5.65h13.24v5H222.4V21.25z"/></svg>